
        <svg xmlns="http://www.w3.org/2000/svg" xmlns:xlink="http://www.w3.org/1999/xlink" version="1.1" width="3128.7917385111327" 
        height="3197.4779795509985" viewBox="0 0 3128.7917385111327 3197.4779795509985">
			<rect fill="#f6f6f6" width="3128.7917385111327" height="3197.4779795509985"/>
			<g transform="scale(9.873898977549926) translate(10, 10)">
				<defs id="SvgjsDefs1396"></defs><g id="SvgjsG1397" featureKey="rootContainer" transform="matrix(2.870687246322632,0,0,2.870687246322632,-0.35166861328141424,0.11258903451166383)" fill="#111111"><g xmlns="http://www.w3.org/2000/svg"><path d="M40.7 103.4a3 3 0 0 0-1.9-.4c.3.8-.2.8-.7.7s-1-.6-1.5 0 2 .4 3 .8a.9.9 0 0 0 1.1 0 3.7 3.7 0 0 0 0-1.1zM11.9 87c-.7-.2-1.1-.6-1.7-.8s-.5-.7-.8-1.1H9a2 2 0 0 0 1.1 1.6 4.7 4.7 0 0 0 1.5 1.8c0-.5 1.8-1.2.3-1.5zm3.5 4.5a2.4 2.4 0 0 1-1.1-1.1.2.2 0 0 0-.4 0l-.4.4 2.2 1.9V92zm-7.5-8.6h-.8l1.1 1.5a.8.8 0 0 0 .4-.7.3.3 0 0 0 .1-.4 1 1 0 0 0-.8-.4zm2.4-62.1c0-.4.1-.8-.6-.7h-.3L9 21.6c.7.2 1.1-.2 1.3-.8zm17.8 79.3v.7h.7c.2 0 .6-.1.5-.3s-.8-.4-1.2-.4z"></path><path d="M103.4 57.2v-2.3c0-1.2.5-2.5-.4-3.7v-.4a6 6 0 0 0 0-4.2l-.2-1.4-.3-1.6v-.8c-.2-1 .1-2.1-1.1-2.7a.2.2 0 0 0 0-.2v-1.1a3.7 3.7 0 0 0-.8-1.9c-.2-.7-.2-1.4-.7-2v-.6l-.4-1.2c-.2-.5-.2-1.1-.7-1.5l-3-5.9h-.3V25l-1-.9c-1.1-1.7-2-3.6-3.4-5.1l-.4-.8-.8-.3-.7-.8-3.2-3.7h-.4c-.1-.3-.4-.3-.7-.3a4 4 0 0 0-2.7-1.9c-.3-1.4-1.5-1.7-2.6-2.2l-.3-.3a2.1 2.1 0 0 0-1.5-.8l-.4-.7h-.7l-3.5-2.1C72 5 71 4.1 69.8 3.7h-.7A1 1 0 0 0 68 3l-1.8-.5-1.5-.6-.8-.4h-.7l-1.5-.3a1.1 1.1 0 0 0-1.1.3c-.1-.7-.7-.7-1.2-.8h-.7l-1 .3c-.5-1.2-1.6-.5-2.4-.7L53.5 0h-.4c-1.1.1-2.3-.3-3.4.3h-4.5l-.4.4h-2.2l-1.9.3c-.8.2-1.6.1-2.3.7a3.7 3.7 0 0 1-2.6.1l-1.1.6h-.4l-.3.2a2 2 0 0 0-1.4.7h-.1l-.9.4h-.1c-.3-.1-.6.2-.9.1l-.3.4-.8.6c-.2-.3-.4-.2-.7-.2v.7a1.8 1.8 0 0 0-1.9.4h-.7l-1.2 1h.2l-.8.8H24a2.5 2.5 0 0 0-1.9 1.4c-.6.5-1.5.6-1.9 1.4h-.3v.4a2 2 0 0 0-1.6 1.1 2.3 2.3 0 0 0-1.1 1.2 1.7 1.7 0 0 0-1.5 1.1 4.5 4.5 0 0 0-1.9 1.9l-.3.4c.2.4.9.4 1.4.5a50.9 50.9 0 0 0 28.6 86.2.8.8 0 0 0 .7.3h.7a51.3 51.3 0 0 0 6 .4h.8a1.4 1.4 0 0 1 .1.6c-1.5.9-3.1-1.4-4.6.1.3.3.8.3.8.9l4.8.4H54a2 2 0 0 1 0-.3 3.4 3.4 0 0 0 1.8-.5c.6-.1 1.2 1 1.7-.1.9 0 1.9.4 2.6-.7h.1c.9 0 1.9.6 2.6-.4l2.6-.3.4.2 2.3-1.3h1c.6.2 1-.2 1.3-.7s2.1-1 3.3-1a3 3 0 0 0 2.7-1.2l2.6-1.7c.7.1.9-.7 1.4-.8s.9-.8 1.5-1.1l.3-.3h.1c.4.1.6-.2.7-.5l.4-.4 2.3-2.6 1.1-1.1.7-.4c.6.1.7-.6 1.1-.8l.9-1.1.6-.4a1.9 1.9 0 0 0 1.3-1.3v-.2a1.8 1.8 0 0 0 .5-.7h.2a1.5 1.5 0 0 0 .5-.5c-.1-.9 1.1-1.1 1.1-2l.9-1.4a1.9 1.9 0 0 0 1.2-1.7c.2-.5.8-.7.6-1.4l.8-.8v-.9c.3 0 .5-.3.7-.5l.4-.7.7-1.6.4-1 .8-1.8.3-.4.2-1.1.5-1.4a1.2 1.2 0 0 0 .3-1.2c.5-.2.3-.7.5-1.1a.5.5 0 0 1 0-.4V65c.5-.5.4-1.1.4-1.7v-.5c.6-.9.2-2.1.6-3s-.3-.6.1-.8h.3v-1h-.1zm-2.9-19.5zM82.2 11.9zM65.8 3zm0 0zM56.4.8zm.1 103zm39.9-24.9zM102 62z"></path></g></g><g id="SvgjsG1398" featureKey="symbolFeature-0" transform="matrix(0.972000002861023,0,0,0.972000002861023,97.57,61.57)" fill="#f6f6f6"><g xmlns="http://www.w3.org/2000/svg"><path d="M52.501,2.5C24.887,2.5,2.5,24.886,2.5,52.499c0,27.614,22.387,50.001,50.001,50.001S102.5,80.113,102.5,52.499   C102.5,24.886,80.115,2.5,52.501,2.5z M52.501,95.686c-23.853,0-43.187-19.334-43.187-43.187c0-23.851,19.334-43.187,43.187-43.187   c23.852,0,43.188,19.336,43.188,43.187C95.688,76.352,76.353,95.686,52.501,95.686z"></path><path d="M26.259,75.269c-1.709,0.884-2.298,0-2.298,0s-2.27-3.329-3.33-4.979c-0.905-1.406,0.142-2.267,0.471-2.49l1.759,2.778   l1.618-1.024l-1.686-2.665l2.245-1.194l1.748,2.763l1.619-1.025l-1.673-2.642l2.274-1.211l1.662,2.758l1.641-0.988l-1.61-2.671   l0.563-0.301l-1.334-2.047c0,0-8.267,4.332-10.919,5.923s-1.119,4.538-1.119,4.538s2.908,3.928,4.153,6.248   c1.504,2.799,4.893,1.09,4.893,1.09l8.546-6.299l-1.326-2.041C34.156,69.788,27.968,74.385,26.259,75.269z"></path><path d="M85.99,65.722c-2.652-1.591-10.919-5.923-10.919-5.923l-1.334,2.047l0.563,0.301l-1.61,2.67l1.641,0.989l1.662-2.758   l2.274,1.211L76.595,66.9l1.619,1.024l1.748-2.763l2.245,1.196l-1.686,2.663l1.618,1.025l1.759-2.778   c0.329,0.224,1.376,1.084,0.471,2.491c-1.061,1.648-3.33,4.979-3.33,4.979s-0.589,0.884-2.298,0   c-1.709-0.886-7.897-5.481-7.897-5.481L69.518,71.3l8.546,6.297c0,0,3.389,1.709,4.893-1.09c1.245-2.32,4.153-6.246,4.153-6.246   S88.643,67.313,85.99,65.722z"></path><path d="M75.72,54.366c0,0,4.597-8.133,0-15.911c-4.18-7.073-14.642-8.225-20.051-1.731c-0.002,0-0.002,0-0.004,0.001   c-0.011,0.014-0.023,0.031-0.035,0.049c-0.243,0.294-0.474,0.608-0.696,0.935c-0.223,0.045-0.495-0.255-0.866-1.334   c-0.865-2.515,2.2-6.287,3.693-8.094c1.493-1.808,0.471-2.279,0.471-2.279c-3.692,0.157-5.794,4.479-5.794,4.479   c-0.45-0.942-2.22-2.671-2.22-2.671c-2.987-12.258-15.481-6.68-15.481-6.68c0.629,11.079,14.087,10.27,12.651,9.194   c-2.828-2.121-3.692-4.715-3.692-4.715c8.564,4.637,8.486,9.507,8.25,11.394c-0.144,1.146-1.098,1.043-1.825,0.788   c-5.108-7.658-16.445-6.771-20.84,0.665c-4.597,7.778,0,15.911,0,15.911s1.427,2.443,4.954,7.477   c3.769,5.371,0.645,10.026,4.497,13.82c5.813,5.722,13.769,0.155,13.769,0.155s7.955,5.566,13.768-0.155   c3.854-3.794,0.729-8.449,4.495-13.82C74.293,56.81,75.72,54.366,75.72,54.366z M64.897,35.878   c0.788-0.953,2.674-0.695,4.212,0.576c1.539,1.271,2.148,3.075,1.36,4.029c-0.788,0.952-2.675,0.695-4.213-0.577   C64.718,38.634,64.108,36.83,64.897,35.878z M70.951,45.515c-0.41,0.485-1.381,0.34-2.167-0.322   c-0.787-0.664-1.093-1.595-0.683-2.079c0.409-0.484,1.378-0.339,2.165,0.324C71.055,44.101,71.36,45.031,70.951,45.515z    M52.5,63.128c-6.4,0-6.386-0.191-15.041-0.823c-0.855-1.783-2.44-3.51-3.421-5.09c-1.768-2.85-2.2-5.087-2.2-5.087   s1.294,0.22,3.343,0.516v2.573h1.916v-2.308c1.075,0.143,2.27,0.292,3.538,0.436v2.934h1.915V53.55   c1.151,0.117,2.34,0.223,3.539,0.313v3.354h1.915V53.99c1.197,0.068,2.385,0.114,3.539,0.133v3.628h1.914v-3.627   c1.18-0.014,2.366-0.056,3.539-0.116v3.209h1.915v-3.325c1.213-0.085,2.4-0.187,3.539-0.298v2.685h1.915v-2.888   c1.278-0.144,2.47-0.295,3.538-0.44v2.267h1.916v-2.541c2.07-0.312,3.343-0.548,3.343-0.548s-0.433,2.237-2.2,5.087   c-0.98,1.58-2.629,3.307-3.486,5.09C67.476,62.305,58.519,63.128,52.5,63.128z"></path></g></g><g id="SvgjsG1399" featureKey="nameFeature-0" transform="matrix(2.0989837646484375,0,0,2.0989837646484375,52.16040831042703,149.8510871634758)" fill="#f6f6f6"><path d="M16 40.56 l-2.84 -17.88 l-0.88 11.76 l-3.72 -0.12 l-3.76 -10.08 l0.36 16.08 l-4.76 -0.36 l1.24 -22.16 l4.32 -1.24 l3.28 8.04 l1.8 -8.16 l5.52 -0.56 l3.64 23.52 z M35.160000000000004 15.16 l4 1.84 l-13.08 24.28 l-3.8 -2.24 l5.64 -10.44 l-6.12 -11.72 l3.48 -2.04 l5.12 9.12 z M40.760000000000005 42.6 c-2.12 0.04 -3.64 -0.28 -3.64 -0.28 l-0.16 -26.56 s0.68 -0.2 3.92 0 c3.24 0.24 9.56 2.52 10.04 12.68 c0.44 10.16 -5.64 14.08 -10.16 14.16 z M41.56 37.56 c0 0 5.44 -2.2 5.28 -8.28 c-0.16 -6.12 -3.68 -8.08 -5.8 -8.36 z M61.24 36.88 l0.32 3.04 l-8.2 0.68 l-0.04 -3.72 l1.64 0 c0.2 -3.44 0.56 -13.4 0.52 -17.44 l-2.52 0.08 l0.12 -3.8 l8.24 0.16 l0.16 3.32 l-2.36 0.08 l0.24 17.6 l1.88 0 z M75.24000000000001 41.6 l-10.92 -0.2 l-0.56 -24.04 l10.68 -1.4 l-0.12 4.52 l-6.12 0 l0 7.64 l5.12 -0.44 l0.28 4.56 l-5.2 -0.08 l-0.28 5.8 l7.52 -0.28 z M90.92 15.280000000000001 l-0.36 4.72 l-4.12 0.16 l0.28 19.92 l-6.04 1 l1.12 -20.76 l-4.36 0.16 l0.12 -4.4 z"></path></g>
			</g>
		</svg>
	